<?xml version="1.0" standalone="no"?>

<svg version="1.0" xmlns="http://www.w3.org/2000/svg"
 width="1500.000000pt" height="1056.000000pt" viewBox="0 0 1500.000000 1056.000000"
 preserveAspectRatio="xMidYMid meet">

<g transform="translate(0.000000,1056.000000) scale(0.100000,-0.100000)"
fill="#000000" stroke="none">
<path d="M3120 10360 c-270 -10 -488 -26 -543 -41 -34 -9 -42 -17 -63 -64
-124 -282 -550 -1960 -1698 -6685 -462 -1904 -651 -2673 -746 -3040 -48 -186
-69 -283 -64 -303 3 -15 21 -44 40 -63 l35 -34 1488 0 1488 0 47 41 c51 45 96
122 96 165 0 35 39 227 101 493 57 248 290 1204 294 1209 2 2 245 -4 542 -12
1732 -51 2496 -40 2846 38 l58 14 15 -37 c26 -60 62 -232 109 -521 115 -704
152 -891 215 -1081 45 -135 87 -223 131 -274 l31 -35 2492 0 2492 0 27 28 27
28 0 937 0 937 -1241 0 c-1128 0 -1241 1 -1235 16 3 9 6 18 6 20 0 2 8 4 19 4
10 0 27 11 37 25 10 14 23 25 27 25 5 0 15 6 22 12 31 28 44 38 50 38 4 0 13
6 20 13 30 26 44 37 50 37 3 0 17 11 31 25 14 14 30 25 35 25 6 0 25 16 43 35
19 19 40 35 49 35 9 0 18 9 22 19 3 11 16 23 27 27 12 3 32 17 45 30 13 13 29
24 34 24 6 0 24 13 39 30 15 16 33 30 39 30 5 0 21 11 34 24 13 13 33 27 45
30 12 4 22 11 22 15 0 15 37 51 52 51 8 0 24 11 34 25 10 14 24 25 31 25 7 0
23 11 37 25 14 14 30 25 35 25 6 0 21 11 35 25 14 14 28 25 32 25 4 0 17 11
30 25 13 14 28 25 35 25 6 0 26 16 45 35 18 19 36 35 39 35 4 0 13 6 20 13 31
27 44 37 50 37 4 0 13 6 20 13 30 26 44 37 50 37 3 0 17 11 31 25 14 14 30 25
35 25 6 0 25 16 43 35 19 19 40 35 49 35 9 0 18 9 22 19 3 11 16 23 27 27 12
3 32 17 45 30 13 13 29 24 34 24 6 0 23 13 38 29 14 15 36 31 48 35 12 4 25
15 28 25 3 10 19 21 34 24 17 4 32 15 36 26 3 11 16 23 28 27 12 4 34 20 48
35 15 16 32 29 38 29 5 0 21 11 35 25 14 14 30 25 35 25 6 0 21 11 35 25 14
14 28 25 32 25 4 0 17 11 30 25 13 14 28 25 35 25 6 0 26 16 45 35 18 19 36
35 39 35 4 0 13 6 20 13 31 27 44 37 50 37 4 0 13 6 20 13 32 28 45 37 52 37
5 0 17 11 27 25 10 14 25 25 33 25 8 0 29 16 47 35 19 19 36 35 40 35 4 0 18
11 32 25 14 14 29 25 34 25 6 0 10 516 10 1395 l0 1395 -1625 2 -1625 3 348
204 c914 539 1841 1101 2442 1481 486 308 435 270 448 337 8 40 12 295 12 811
l0 752 -1040 0 c-608 0 -1040 -4 -1040 -9 0 -5 -33 -12 -72 -16 -71 -7 -78
-11 -263 -125 -377 -232 -758 -452 -1645 -950 -1397 -783 -2059 -1185 -2652
-1609 l-118 -84 0 -71 c0 -39 5 -120 10 -181 33 -360 96 -650 300 -1365 131
-462 233 -880 218 -895 -2 -3 -204 0 -449 6 -244 6 -675 9 -957 7 -416 -2
-512 -1 -512 10 0 7 133 538 294 1180 392 1552 702 2813 846 3437 70 305 139
629 135 633 -9 9 -248 31 -450 42 -261 14 -1747 21 -2065 10z m7775 -5400 c11
-5 14 -9 6 -9 -7 -1 -24 -12 -37 -26 -13 -14 -28 -25 -35 -25 -6 0 -22 -11
-35 -25 -13 -14 -30 -25 -38 -25 -8 0 -18 -9 -21 -20 -4 -12 -18 -23 -36 -27
-15 -3 -31 -14 -34 -24 -3 -10 -15 -21 -26 -24 -10 -4 -19 -11 -19 -16 0 -5
-5 -9 -10 -9 -10 0 -22 -8 -55 -37 -7 -7 -17 -13 -22 -13 -4 0 -17 -11 -27
-25 -10 -14 -26 -25 -35 -25 -9 0 -25 -11 -35 -25 -10 -14 -27 -25 -37 -25
-11 0 -19 -4 -19 -8 0 -16 -37 -52 -52 -52 -8 0 -24 -11 -34 -25 -10 -14 -24
-25 -31 -25 -7 0 -23 -11 -37 -25 -14 -14 -28 -25 -31 -25 -6 0 -20 -11 -50
-37 -7 -7 -17 -13 -21 -13 -4 0 -17 -11 -30 -25 -13 -14 -29 -25 -36 -25 -7 0
-22 -11 -32 -25 -10 -14 -27 -25 -37 -25 -10 0 -21 -9 -24 -20 -4 -13 -18 -23
-36 -27 -16 -3 -29 -9 -29 -14 0 -12 -49 -59 -61 -59 -5 0 -21 -11 -35 -25
-14 -14 -30 -25 -37 -25 -7 0 -21 -11 -31 -25 -10 -14 -26 -25 -34 -25 -15 0
-52 -36 -52 -52 0 -4 -8 -8 -19 -8 -10 0 -27 -11 -37 -25 -10 -14 -26 -25 -35
-25 -9 0 -25 -11 -35 -25 -10 -14 -22 -25 -27 -25 -7 0 -20 -9 -52 -37 -7 -7
-16 -13 -20 -13 -6 0 -19 -10 -50 -37 -7 -7 -16 -13 -20 -13 -3 0 -21 -16 -39
-35 -19 -19 -40 -35 -49 -35 -8 0 -17 -7 -21 -15 -3 -8 -15 -15 -26 -15 -11 0
-20 -4 -20 -10 0 -13 -49 -60 -63 -60 -7 0 -19 -9 -27 -20 -8 -11 -20 -20 -27
-20 -7 0 -28 -15 -46 -34 -19 -18 -43 -37 -55 -40 -12 -4 -24 -15 -27 -25 -3
-10 -19 -21 -34 -24 -18 -4 -32 -15 -36 -27 -3 -11 -13 -20 -21 -20 -8 0 -25
-11 -38 -25 -13 -14 -26 -25 -30 -25 -7 0 -20 -10 -51 -37 -7 -7 -16 -13 -20
-13 -6 0 -19 -10 -50 -37 -7 -7 -16 -13 -20 -13 -3 0 -17 -11 -31 -25 -14 -14
-30 -25 -37 -25 -7 0 -21 -11 -31 -25 -10 -14 -26 -25 -34 -25 -15 0 -52 -36
-52 -51 0 -4 -10 -11 -22 -15 -13 -4 -30 -15 -39 -25 -9 -11 -23 -19 -30 -19
-8 0 -28 -16 -44 -35 -17 -19 -35 -35 -42 -35 -7 0 -23 -11 -36 -24 -13 -13
-33 -27 -45 -30 -11 -4 -24 -16 -27 -27 -4 -10 -13 -19 -21 -19 -8 0 -25 -11
-38 -25 -13 -14 -29 -25 -35 -25 -7 0 -22 -11 -35 -25 -13 -14 -26 -25 -30
-25 -4 0 -18 -11 -32 -25 -14 -14 -29 -25 -35 -25 -5 0 -21 -11 -35 -25 -14
-14 -29 -25 -35 -25 -5 0 -21 -11 -35 -25 -14 -14 -30 -25 -36 -25 -11 0 -48
-38 -48 -50 0 -4 -13 -10 -29 -13 -17 -4 -32 -14 -36 -26 -3 -11 -16 -23 -28
-27 -12 -4 -29 -15 -38 -25 -9 -11 -22 -19 -28 -19 -6 0 -27 -16 -45 -35 -19
-19 -39 -35 -45 -35 -5 0 -21 -11 -35 -25 -14 -14 -28 -25 -32 -25 -4 0 -17
-11 -30 -25 -13 -14 -28 -25 -34 -25 -6 0 -21 -11 -34 -25 -13 -14 -30 -25
-39 -25 -9 0 -18 -9 -22 -19 -3 -11 -16 -23 -27 -27 -12 -3 -32 -17 -45 -30
-28 -28 -38 -31 -28 -6 26 61 -46 397 -231 1077 -174 637 -299 1058 -511 1708
-5 16 104 17 2208 16 1218 0 2223 -4 2234 -9z"/>
</g>
</svg>
